<?xml version="1.0" standalone="no"?>
<!DOCTYPE svg PUBLIC "-//W3C//DTD SVG 20010904//EN"
 "http://www.w3.org/TR/2001/REC-SVG-20010904/DTD/svg10.dtd">
<svg version="1.0" xmlns="http://www.w3.org/2000/svg"
 width="375.000000pt" height="500.000000pt" viewBox="0 0 375.000000 500.000000"
 preserveAspectRatio="xMidYMid meet">

<g transform="translate(0.000000,500.000000) scale(0.100000,-0.100000)"
fill="#000000" stroke="none">
<path d="M2002 4909 c-24 -4 -77 -26 -118 -48 l-73 -40 -43 24 c-148 82 -383
37 -503 -98 -25 -27 -45 -53 -45 -57 0 -5 -33 -6 -73 -3 -93 7 -137 -7 -196
-62 -31 -28 -67 -49 -111 -64 -128 -42 -229 -117 -299 -222 -30 -45 -41 -72
-41 -99 0 -37 -1 -38 -47 -50 -112 -28 -223 -123 -280 -237 -24 -50 -28 -70
-28 -148 l-1 -90 -36 -36 c-42 -41 -53 -73 -44 -124 12 -64 71 -115 149 -129
23 -4 40 -14 43 -24 25 -77 67 -142 107 -163 17 -10 19 -9 14 5 -7 18 8 22 19
5 17 -27 110 -59 174 -59 l65 0 -26 23 c-14 12 -31 30 -38 40 -13 16 -11 16
22 2 70 -29 144 -12 198 46 34 36 38 28 8 -20 l-20 -33 38 6 c61 11 118 44
162 91 43 47 51 45 25 -8 l-17 -32 27 24 c14 13 28 33 32 43 5 15 10 11 27
-24 42 -83 122 -110 246 -84 40 8 97 28 126 45 46 24 53 26 44 10 -5 -11 -28
-32 -49 -48 l-39 -28 25 -12 c54 -24 151 -6 216 40 30 22 30 22 19 1 -6 -11
-11 -23 -11 -26 0 -28 87 46 114 96 l18 34 33 -33 c27 -27 40 -33 78 -33 55 0
120 22 165 57 31 23 33 24 23 4 -7 -11 -15 -21 -19 -21 -4 -1 -24 -16 -45 -35
l-39 -34 31 -15 c40 -21 124 -20 191 4 l55 18 -40 -35 -40 -34 60 3 c68 4 138
34 186 79 17 16 28 22 25 13 -3 -9 -6 -19 -6 -24 0 -5 -12 -23 -26 -40 -36
-43 -22 -55 64 -55 57 1 77 6 132 35 36 19 64 40 63 45 -1 6 -15 13 -30 16
-16 3 -37 10 -47 16 -15 8 -8 11 34 16 73 9 136 42 171 90 16 22 29 35 29 29
0 -25 -23 -69 -53 -101 l-32 -34 48 6 c48 7 117 36 151 66 18 15 18 15 8 -4
-18 -34 -57 -65 -108 -84 -57 -22 -74 -42 -55 -65 47 -56 260 -45 360 18 42
27 121 110 121 127 0 7 2 10 5 7 4 -3 -3 -31 -14 -62 -18 -51 -18 -56 -3 -56
26 0 79 36 98 66 10 14 26 50 36 78 13 40 17 45 18 24 0 -38 13 -35 66 14 84
77 121 166 103 247 -14 64 5 142 47 186 71 76 86 243 31 338 -33 55 -104 109
-187 140 -49 19 -69 33 -98 72 -49 64 -108 95 -182 95 -41 0 -61 5 -71 17 -17
20 -71 43 -102 43 -17 0 -28 11 -44 44 -53 108 -222 171 -356 132 -54 -16 -57
-16 -89 4 -21 12 -51 20 -80 20 -40 0 -49 4 -68 30 -60 84 -229 129 -378 99z
m197 -813 c-7 -17 -27 -52 -46 -79 l-33 -47 26 -10 c42 -16 88 -11 139 15 27
13 51 22 54 20 10 -11 -24 -56 -61 -82 -49 -33 -139 -43 -184 -20 l-29 15 0
-69 c0 -52 -4 -73 -17 -86 -17 -16 -18 -15 -18 34 0 29 -4 63 -10 77 l-10 26
-61 -45 c-37 -28 -77 -48 -101 -52 -35 -5 -45 -13 -74 -58 -63 -99 -208 -172
-322 -163 -49 4 -59 9 -94 47 l-39 42 -71 -36 c-40 -20 -86 -35 -106 -35 l-34
0 36 40 c41 45 45 55 17 40 -30 -16 -73 -12 -108 10 -38 22 -42 14 -13 -23 27
-34 26 -37 -13 -37 -59 0 -155 84 -182 159 -29 83 -13 165 43 224 49 52 64 52
31 -1 -16 -26 -32 -65 -36 -85 -7 -47 18 -116 61 -165 l31 -36 5 65 c5 57 7
61 17 39 12 -28 46 -62 80 -79 34 -18 86 -13 136 13 50 25 56 19 33 -26 -14
-26 -13 -28 3 -28 27 0 69 37 91 81 26 49 34 50 25 0 -5 -33 -3 -41 17 -55 42
-30 170 -15 266 32 65 32 137 107 151 158 6 22 11 62 11 89 0 36 3 46 10 35 5
-8 10 -44 10 -80 1 -61 2 -64 16 -45 13 16 15 38 11 113 -5 90 -5 93 13 77 11
-10 21 -38 25 -73 4 -31 12 -63 17 -69 26 -32 146 6 200 63 15 16 38 54 51 84
13 30 28 64 32 75 15 33 19 -52 4 -89z m227 -151 c0 -82 18 -90 47 -23 14 31
30 59 37 63 9 5 10 3 2 -11 -53 -104 23 -302 132 -344 37 -14 41 -9 23 27 -8
15 -17 42 -21 58 l-8 30 26 -24 c14 -14 28 -22 30 -20 3 2 -4 31 -15 63 -19
56 -20 90 -3 149 9 30 20 19 38 -40 19 -62 61 -114 107 -134 48 -19 34 -32
-30 -27 l-60 4 15 -27 c7 -15 28 -38 46 -51 28 -19 45 -23 113 -23 165 1 304
71 364 184 43 82 54 71 61 -60 l5 -99 27 34 c28 35 46 70 70 140 19 56 33 40
32 -38 0 -73 -2 -72 41 -11 13 19 14 18 14 -14 2 -81 -88 -188 -182 -216 -55
-16 -97 -7 -97 22 0 10 9 33 20 51 11 17 16 32 10 32 -5 0 -12 -5 -16 -11 -9
-16 -73 -41 -85 -34 -5 4 6 25 26 48 45 52 45 68 0 29 -53 -48 -115 -80 -185
-98 -94 -24 -170 -14 -263 34 -4 2 -4 -3 -1 -12 5 -13 -2 -16 -35 -16 -80 0
-185 73 -222 155 -12 26 -19 33 -19 20 -1 -17 -4 -16 -30 12 -28 32 -50 87
-50 130 0 18 28 103 34 103 0 0 1 -25 2 -55z m-1654 -73 c23 -50 27 -146 9
-209 -26 -94 -113 -168 -211 -180 -42 -5 -50 -9 -44 -22 13 -27 17 -101 6
-101 -6 0 -22 20 -36 45 -15 24 -36 50 -47 56 -22 11 -101 8 -131 -5 -13 -6
-18 -4 -18 6 0 8 -16 20 -35 26 -34 13 -85 63 -85 84 0 6 14 -5 31 -25 72 -84
178 -46 214 76 l12 41 14 -29 c51 -105 192 -89 259 29 36 62 39 125 10 218
-11 34 -20 67 -20 72 0 20 54 -42 72 -82z m1532 -242 c-14 -40 -15 -52 -5 -64
30 -36 120 -39 205 -6 26 9 28 9 16 -5 -25 -31 -98 -66 -149 -72 -56 -6 -104
8 -125 38 -12 18 -16 17 -83 -17 -52 -27 -87 -37 -137 -41 -77 -7 -110 6 -132
49 -21 40 -17 45 14 15 59 -57 129 -56 209 2 40 29 93 116 93 152 0 10 5 21
10 24 13 8 13 -66 0 -101 -26 -67 31 -24 66 51 13 28 25 59 26 70 0 11 3 5 5
-13 3 -19 -3 -56 -13 -82z"/>
<path d="M3369 3243 c-26 -13 -66 -26 -89 -28 -36 -2 -45 -7 -56 -31 l-12 -29
-2 30 c-1 27 -3 25 -21 -22 -24 -62 -90 -127 -145 -142 -70 -19 -129 -14 -163
15 -17 14 -31 33 -31 41 0 10 -16 1 -45 -26 -61 -57 -79 -56 -49 1 l16 31 -44
-36 c-81 -66 -169 -93 -219 -66 -19 10 -19 10 1 36 33 43 23 50 -17 11 -47
-44 -73 -58 -112 -58 -37 0 -38 6 -8 38 25 28 26 28 -63 -16 -38 -19 -80 -32
-102 -32 -36 0 -37 1 -28 26 24 62 66 138 99 176 l35 41 -41 -27 c-23 -15 -60
-30 -82 -33 -35 -5 -44 -2 -70 25 l-30 30 -43 -16 c-54 -19 -106 -11 -142 23
-22 20 -31 23 -51 15 -27 -10 -51 -5 -77 17 -14 13 -17 12 -23 -6 -3 -11 -20
-32 -36 -46 -35 -28 -93 -34 -124 -11 -17 12 -23 11 -48 -8 -21 -15 -43 -21
-83 -21 -30 0 -54 -1 -54 -3 0 -1 11 -20 25 -42 40 -63 42 -93 9 -115 -55 -36
-175 -27 -144 10 10 12 3 14 -48 12 -49 -2 -66 2 -91 21 -17 12 -31 19 -31 15
0 -11 31 -56 44 -65 30 -20 -65 -48 -118 -34 -26 6 -86 52 -86 66 0 5 8 11 18
13 10 3 6 5 -11 6 -16 0 -37 6 -48 11 -23 13 -25 3 -3 -21 16 -17 15 -19 -12
-30 -53 -21 -116 -15 -170 16 l-48 28 31 11 c51 18 52 29 2 22 -51 -8 -92 4
-127 36 -25 25 -29 13 -6 -20 13 -19 13 -22 0 -22 -8 0 -27 5 -43 10 l-28 10
25 -20 c14 -11 40 -20 58 -20 23 0 41 -8 60 -29 15 -16 43 -37 62 -46 43 -22
148 -31 191 -16 28 10 35 9 53 -8 48 -45 132 -62 205 -41 27 7 41 5 75 -12 29
-15 60 -21 106 -21 89 0 170 4 170 9 0 3 -7 21 -15 41 -16 38 -19 71 -9 97 5
13 12 8 35 -21 16 -21 29 -45 30 -53 1 -8 4 -1 8 15 6 27 10 19 40 -69 18 -55
41 -137 51 -182 l18 -82 -45 -12 c-31 -9 -41 -16 -33 -24 7 -7 20 -7 42 2 44
16 78 -5 78 -51 0 -37 -24 -77 -46 -77 -12 0 -13 4 -3 23 10 19 8 19 -18 -5
-16 -16 -40 -28 -54 -28 -17 0 -20 -3 -11 -9 10 -6 7 -10 -13 -15 -33 -8 -92
10 -104 32 -8 14 -12 14 -25 3 -24 -20 -66 1 -66 33 0 31 24 50 55 43 18 -3
29 1 35 14 6 10 19 21 31 24 11 4 18 9 15 12 -3 3 -26 -5 -52 -17 -50 -25 -85
-29 -122 -16 -22 7 -22 7 3 -18 19 -19 24 -32 20 -49 -17 -54 -77 -79 -117
-47 l-25 19 -12 -25 c-6 -14 -17 -24 -24 -21 -6 2 -23 -4 -36 -14 -13 -11 -38
-19 -55 -19 -39 0 -79 27 -72 47 4 8 2 11 -5 7 -7 -4 -9 0 -5 14 6 17 3 19
-14 15 -11 -3 -20 -14 -20 -24 0 -11 -11 -25 -26 -31 -22 -10 -28 -10 -38 4
-10 14 -15 13 -46 -9 l-35 -24 35 3 c20 1 40 -1 46 -5 6 -3 24 1 40 9 26 14
32 14 59 -3 40 -23 128 -22 175 2 22 11 52 17 82 16 26 -1 60 4 75 12 19 10
36 12 51 6 13 -5 33 -4 49 2 18 6 35 7 52 0 14 -5 63 -11 109 -14 45 -2 87 -8
91 -13 5 -5 14 -90 21 -189 6 -99 14 -182 17 -185 3 -3 2 87 -2 200 l-7 205
20 -19 c31 -27 101 -32 143 -10 29 15 56 19 67 10 1 -2 -11 -86 -28 -187 -37
-230 -81 -652 -67 -639 3 3 15 77 26 165 11 88 27 180 35 205 13 43 14 39 15
-113 1 -86 -4 -269 -10 -405 -5 -136 -9 -310 -7 -387 l3 -140 10 85 9 85 8
-80 c12 -127 28 -223 47 -279 10 -28 24 -81 31 -118 l12 -67 32 6 c17 3 33 7
35 9 2 2 -6 34 -17 71 -99 336 -127 669 -102 1248 14 324 9 302 73 309 28 4
81 8 118 10 36 2 75 8 86 15 16 8 42 8 97 0 42 -5 81 -7 86 -4 5 3 22 8 37 10
88 11 168 27 184 35 10 6 29 10 43 10 14 0 27 4 30 9 3 4 23 11 45 15 44 7
101 36 101 51 0 13 -72 85 -85 85 -5 0 -19 10 -32 22 -12 11 -42 24 -65 28
-24 4 -52 11 -63 14 -18 7 -18 6 -2 -4 24 -15 22 -66 -2 -80 -27 -14 -66 -13
-80 4 -6 7 -22 11 -36 8 -14 -2 -32 1 -40 8 -26 21 -17 90 12 90 23 0 10 24
-23 39 -41 20 -115 25 -157 12 -32 -11 -42 -9 -90 13 -38 19 -71 26 -111 26
l-58 0 7 43 c4 23 8 49 9 57 1 8 5 22 8 30 3 8 16 49 29 90 l24 75 57 7 c32 4
67 12 77 18 14 7 29 5 58 -7 79 -36 310 -16 408 34 22 12 62 17 155 18 104 1
135 5 182 23 62 25 130 90 154 147 11 26 26 39 73 60 32 15 72 40 87 56 33 34
32 34 -27 2z m-1348 -371 c-6 -37 -13 -83 -16 -102 -5 -33 -4 -33 20 15 l25
50 -6 -45 c-3 -25 -13 -73 -21 -107 l-15 -63 -49 0 c-26 0 -50 4 -53 9 -9 15
44 194 82 276 42 89 51 81 33 -33z m-163 -169 c-1 -70 -2 -73 -25 -73 -23 0
-23 2 -18 53 4 28 11 75 17 102 11 49 12 49 20 20 4 -16 7 -63 6 -102z m-113
-31 c5 -43 4 -53 -7 -50 -9 3 -13 29 -15 89 -2 89 8 72 22 -39z m168 -74 c20
-20 32 -23 90 -21 62 2 69 0 83 -23 15 -22 18 -23 28 -8 17 23 78 15 91 -12
10 -19 12 -20 33 -6 19 13 25 13 46 -1 21 -14 25 -14 40 1 26 26 94 22 117 -7
25 -30 24 -37 -6 -66 -26 -27 -72 -33 -107 -14 -16 9 -24 7 -42 -10 -31 -29
-50 -27 -42 5 l7 25 -30 -22 c-41 -30 -138 -33 -155 -4 -6 11 -11 21 -12 22 0
2 -15 -3 -32 -9 -27 -11 -34 -10 -49 4 -15 16 -17 16 -29 0 -10 -13 -13 -14
-14 -3 0 10 -9 6 -27 -11 -40 -38 -90 -41 -123 -8 -26 26 -25 70 2 106 l22 29
-24 -20 c-21 -18 -23 -19 -17 -2 4 10 7 23 7 28 0 5 9 18 20 29 28 28 94 27
123 -2z m827 -158 c11 -7 12 -12 3 -21 -15 -15 -63 -3 -63 16 0 17 37 20 60 5z
m-330 -40 c28 0 65 -7 82 -16 49 -26 127 -29 169 -6 36 18 37 18 79 -1 32 -15
40 -24 37 -39 -4 -15 -3 -17 8 -8 19 16 70 9 70 -10 0 -21 -52 -45 -69 -31 -8
7 -20 6 -40 -4 -16 -8 -35 -15 -42 -15 -8 0 -26 -7 -39 -16 -29 -19 -90 -23
-107 -6 -8 8 -8 16 3 29 13 16 12 17 -3 4 -10 -7 -18 -22 -18 -32 0 -14 -7
-19 -25 -19 -14 0 -25 6 -25 13 0 6 -12 13 -27 14 -23 1 -24 0 -10 -9 14 -8
16 -13 6 -24 -15 -18 -80 -18 -105 1 -16 13 -17 16 -4 26 12 8 10 10 -10 5
-14 -3 -32 -6 -41 -6 -10 0 -16 -7 -15 -17 1 -14 -7 -18 -34 -18 -27 0 -35 4
-34 18 2 23 -13 22 -26 -3 -8 -15 -21 -20 -54 -20 -47 0 -61 7 -47 24 6 8 0
11 -20 12 -21 1 -27 -2 -20 -9 16 -16 13 -25 -10 -38 -21 -11 -21 -10 -15 42
3 30 6 73 6 95 l0 42 63 -2 c44 -1 71 4 88 16 17 11 31 13 40 7 21 -13 63 -11
84 5 13 10 25 11 37 5 9 -5 40 -9 68 -9z"/>
<path d="M2508 2263 c7 -3 16 -2 19 1 4 3 -2 6 -13 5 -11 0 -14 -3 -6 -6z"/>
<path d="M1184 2518 l-19 -23 25 20 c14 11 27 21 29 22 2 2 0 3 -6 3 -5 0 -18
-10 -29 -22z"/>
<path d="M2561 2489 c20 -21 28 -23 48 -15 l24 11 -29 6 c-16 4 -37 10 -48 14
-15 7 -14 3 5 -16z"/>
<path d="M800 2333 c0 -19 53 -51 95 -58 22 -4 45 -11 50 -15 6 -4 24 -10 40
-12 27 -5 81 -16 242 -49 29 -6 57 -8 62 -5 20 12 97 15 130 4 19 -6 61 -12
95 -13 34 -1 80 -6 104 -10 l42 -8 0 37 c0 20 -4 36 -10 36 -5 0 -10 -6 -10
-14 0 -8 -9 -17 -20 -21 -22 -7 -96 11 -105 26 -4 5 -21 7 -40 3 -18 -3 -42
-1 -54 6 -17 9 -25 8 -37 -5 -22 -22 -101 -19 -147 5 -31 17 -37 17 -37 5 0
-22 -25 -18 -43 8 -13 17 -16 18 -16 6 -1 -23 -25 -30 -47 -15 -11 7 -42 16
-71 19 -29 3 -63 12 -75 18 -13 7 -34 14 -47 15 -13 2 -31 10 -41 19 -14 13
-19 13 -23 3 -4 -10 -10 -8 -21 6 -9 11 -16 15 -16 9z"/>
<path d="M1853 376 c-17 -8 -37 -25 -44 -38 -10 -20 -8 -19 20 7 31 29 40 30
124 26 9 -1 35 -1 57 0 22 1 50 -5 64 -15 14 -9 36 -16 49 -16 13 0 27 -3 31
-7 3 -4 29 -6 56 -4 27 1 58 -2 68 -8 15 -8 21 -7 25 3 3 8 22 19 41 26 30 9
41 9 67 -4 22 -11 36 -13 49 -6 10 6 40 10 67 10 49 0 86 -17 111 -52 7 -10
24 -18 37 -18 23 0 55 -23 55 -40 0 -4 9 -10 20 -13 17 -4 17 -2 -6 29 -19 24
-34 34 -54 34 -19 0 -33 8 -45 26 -24 37 -80 57 -134 50 -24 -3 -50 -11 -57
-17 -10 -8 -19 -7 -36 5 -30 21 -56 20 -100 -3 -30 -17 -41 -18 -67 -8 -23 8
-38 9 -61 0 -17 -7 -32 -7 -36 -2 -3 5 -17 9 -31 9 -15 0 -35 8 -45 17 -18 16
-45 19 -118 14 -8 -1 -28 1 -45 4 -16 3 -44 -1 -62 -9z"/>
<path d="M1324 340 c-12 -5 -25 -13 -28 -19 -4 -6 -13 -8 -21 -5 -7 3 -22 1
-31 -4 -33 -19 38 -7 75 12 46 24 123 17 156 -14 13 -12 30 -20 38 -17 8 3 26
-1 41 -8 24 -13 30 -12 59 5 19 12 50 20 77 20 37 1 42 2 26 11 -24 14 -94 5
-114 -14 -11 -12 -21 -13 -40 -6 -14 5 -32 7 -40 4 -8 -3 -27 6 -44 20 -23 20
-40 25 -81 24 -29 0 -62 -4 -73 -9z"/>
<path d="M1750 320 c-8 -5 -12 -12 -9 -15 4 -3 12 1 19 10 14 17 11 19 -10 5z"/>
<path d="M1873 295 c-17 -7 -37 -24 -44 -37 -11 -22 -11 -22 17 3 16 15 43 31
59 37 17 6 23 11 15 11 -8 0 -29 -6 -47 -14z"/>
<path d="M1108 270 c-21 -21 -39 -30 -62 -30 -20 0 -40 -8 -51 -20 -14 -16
-26 -19 -55 -14 -47 8 -100 -9 -130 -41 -17 -18 -34 -25 -61 -25 -37 0 -139
-43 -123 -52 5 -2 99 -3 209 -2 110 2 209 3 220 2 31 -1 87 0 115 2 14 1 126
1 250 1 229 -1 316 5 326 20 9 14 218 11 233 -4 18 -18 1111 -18 1111 1 0 7
-8 15 -17 18 -10 3 -30 12 -45 20 -14 8 -40 14 -56 14 -22 0 -32 6 -37 20 -7
22 -51 60 -69 60 -6 -1 1 -7 16 -16 28 -15 54 -51 44 -62 -3 -3 -6 0 -6 6 0
17 -60 52 -90 53 l-25 1 25 8 c14 5 18 8 9 9 -19 1 -106 -35 -113 -48 -3 -4
-37 -4 -77 1 -39 5 -74 6 -77 3 -3 -3 2 -5 11 -5 10 0 17 -4 17 -8 0 -5 -14
-6 -31 -4 -22 3 -30 1 -25 -7 4 -7 0 -11 -11 -11 -10 0 -23 10 -28 22 -16 35
-61 62 -103 61 -102 -2 -142 -13 -142 -38 0 -8 -13 -1 -30 17 -28 27 -36 30
-79 26 -44 -4 -52 -2 -76 24 -24 25 -33 28 -83 27 l-57 -2 57 -6 c44 -5 64
-13 83 -32 24 -24 25 -27 9 -40 -15 -12 -16 -12 -10 8 5 16 1 25 -16 37 -28
20 -103 22 -92 4 6 -10 4 -10 -7 0 -30 28 -128 0 -115 -34 3 -8 2 -14 -3 -14
-4 0 -13 -10 -19 -22 l-11 -23 0 22 c-2 42 -66 56 -121 28 -17 -9 -30 -20 -30
-26 0 -8 -5 -7 -15 1 -8 7 -28 10 -44 8 -17 -2 -28 -1 -25 3 8 14 -33 29 -79
29 -48 0 -92 -26 -107 -64 -7 -17 -9 -18 -9 -3 -1 22 -43 23 -65 1 -9 -8 -16
-11 -16 -5 0 14 34 31 63 31 13 0 34 12 48 26 13 14 35 30 48 35 13 5 21 12
18 15 -9 9 -97 -34 -103 -50 -3 -9 -17 -16 -30 -16 -36 0 -77 -22 -62 -33 8
-5 -3 -6 -30 -3 -32 5 -51 2 -73 -11 -27 -16 -31 -16 -58 0 -17 10 -50 17 -80
17 -28 0 -51 4 -51 9 0 18 44 41 77 41 21 0 33 5 33 14 0 22 29 40 79 47 l46
6 -43 2 c-36 1 -49 -4 -74 -29z m117 -110 c-3 -5 -12 -10 -18 -10 -7 0 -6 4 3
10 19 12 23 12 15 0z"/>
<path d="M1498 273 c7 -3 16 -2 19 1 4 3 -2 6 -13 5 -11 0 -14 -3 -6 -6z"/>
<path d="M2220 252 c19 -10 37 -16 40 -14 9 7 -34 32 -54 32 -16 0 -12 -5 14
-18z"/>
<path d="M2405 261 c47 -8 73 -21 99 -50 11 -12 26 -21 34 -21 12 0 9 7 -9 26
-35 38 -72 54 -121 53 l-43 -2 40 -6z"/>
<path d="M1677 244 c-16 -9 -26 -18 -23 -21 3 -3 12 -1 20 6 7 6 33 16 57 20
43 9 43 9 9 10 -19 0 -48 -7 -63 -15z"/>
<path d="M2290 256 c0 -2 11 -6 25 -8 14 -3 25 -1 25 3 0 5 -11 9 -25 9 -14 0
-25 -2 -25 -4z"/>
<path d="M1590 239 c0 -5 5 -7 10 -4 6 3 10 8 10 11 0 2 -4 4 -10 4 -5 0 -10
-5 -10 -11z"/>
</g>
</svg>
